<svg xmlns="http://www.w3.org/2000/svg" viewBox="0 0 512 512">
  <defs>
    <linearGradient id="appleGradient" x1="0%" y1="0%" x2="100%" y2="100%">
      <stop offset="0%" stop-color="#FF5E5E" />
      <stop offset="100%" stop-color="#E00000" />
    </linearGradient>
    <filter id="shadow" x="-5%" y="-5%" width="110%" height="110%">
      <feDropShadow dx="0" dy="6" stdDeviation="8" flood-color="#000000" flood-opacity="0.2" />
    </filter>
  </defs>
  <circle cx="256" cy="286" r="170" fill="url(#appleGradient)" filter="url(#shadow)" />
  <g fill="none" stroke="#FFFFFF" stroke-opacity="0.9" stroke-width="12" stroke-linecap="round" stroke-linejoin="round">
    <polygon points="256,186 316,226 296,296 216,296 196,226" fill="#FFFFFF" fill-opacity="0.9" />
    <line x1="256" y1="186" x2="256" y2="116" />
    <line x1="316" y1="226" x2="386" y2="186" />
    <line x1="296" y1="296" x2="346" y2="376" />
    <line x1="216" y1="296" x2="166" y2="376" />
    <line x1="196" y1="226" x2="126" y2="186" />
    <line x1="256" y1="116" x2="336" y2="136" />
    <line x1="256" y1="116" x2="176" y2="136" />
    <line x1="386" y1="186" x2="336" y2="136" />
    <line x1="386" y1="186" x2="406" y2="256" />
    <line x1="346" y1="376" x2="406" y2="256" />
    <line x1="346" y1="376" x2="286" y2="446" />
    <line x1="166" y1="376" x2="226" y2="446" />
    <line x1="166" y1="376" x2="106" y2="256" />
    <line x1="126" y1="186" x2="106" y2="256" />
    <line x1="126" y1="186" x2="176" y2="136" />
    <line x1="286" y1="446" x2="226" y2="446" />
  </g>
  <path d="M 276 96 C 276 46 346 36 366 56 C 366 106 296 116 276 96 Z" fill="#32CD32" filter="url(#shadow)" />
  <path d="M 256 120 Q 246 80 266 50" fill="none" stroke="#8B4513" stroke-width="12" stroke-linecap="round" />
</svg>
